# xmcd
#
# Track frame offsets:
#	150
#	15437
#	37217
#	53685
#	67932
#	83312
#	98567
#	118530
#	134287
#	153605
#	175150
#	190440
#	212217
#	228682
#	242932
#	258312
#	273567
#	293527
#	309287
#	328602
#
# Disc length: 4667 seconds
#
# Revision: 1
# Processed by: cddbd v1.5.1PL0 Copyright (c) Steve Scherf et al.
# Submitted via: audiograbber 1.82.02
#
DISCID=14123914
DTITLE=Various Artist - Top Hits Monthly 0307 Country
DYEAR=1900
DGENRE=Karaoke
TTITLE0=Randy Travis W - Vocals - Three wooden crosses W - Vocals
TTITLE1=Craig Morgan W - Vocals - Almost home W - Vocals
TTITLE2=Lonestar W - Vocals - My front porch lookin in W - Vocals
TTITLE3=Tracy Byrd W - Vocals - The truth about men W - Vocals
TTITLE4=Toby Keith and Willie Nelson W - Vocals - Beer for my horses W - Vocals
TTITLE5=George Strait W - Vocals - Tell me something bad about Tulsa W - Vocals
TTITLE6=Dixie Chicks W - Vocals - Truth no. 2 W - Vocals
TTITLE7=Trick Pony W - Vocals - A boy like you W - Vocals
TTITLE8=Warren Brothers W - Vocals - Hey, Mr President W - Vocals
TTITLE9=Shania Twain W - Vocals - Forever and for always W - Vocals
TTITLE10=Randy Travis - Three wooden crosses
TTITLE11=Craig Morgan - Almost home
TTITLE12=Lonestar - My front porch lookin in
TTITLE13=Tracy Byrd - The truth about men
TTITLE14=Toby Keith and Willie Nelson - Beer for my horses
TTITLE15=George Strait - Tell me something bad about Tulsa
TTITLE16=Dixie Chicks - Truth no. 2
TTITLE17=Trick Pony - A boy like you
TTITLE18=Warren Brothers - Hey, Mr President
TTITLE19=Shania Twain - Forever and for always
EXTD=
EXTT0=
EXTT1=
EXTT2=
EXTT3=
EXTT4=
EXTT5=
EXTT6=
EXTT7=
EXTT8=
EXTT9=
EXTT10=
EXTT11=
EXTT12=
EXTT13=
EXTT14=
EXTT15=
EXTT16=
EXTT17=
EXTT18=
EXTT19=
PLAYORDER=
